<svg xmlns="http://www.w3.org/2000/svg" width="640" height="290" viewBox="0 0 640 290" font-family="system-ui,-apple-system,Segoe UI,sans-serif">
<rect width="640" height="290" rx="12" fill="#1a1a19"/>
<rect x="48" y="22" width="10" height="10" rx="2" fill="#3987e5"/>
<text x="63" y="31" font-size="11.5" fill="#c3c2b7">Beyond Text</text>
<rect x="151.2" y="22" width="10" height="10" rx="2" fill="#d95926"/>
<text x="166.2" y="31" font-size="11.5" fill="#c3c2b7">Text Stories</text>
<rect x="260.6" y="22" width="10" height="10" rx="2" fill="#199e70"/>
<text x="275.6" y="31" font-size="11.5" fill="#c3c2b7">Evaluation</text>
<rect x="357.6" y="22" width="10" height="10" rx="2" fill="#c98500"/>
<text x="372.6" y="31" font-size="11.5" fill="#c3c2b7">Co-creation</text>
<line x1="48" x2="616" y1="246.0" y2="246.0" stroke="#383835" stroke-width="1"/>
<text x="40" y="250.0" font-size="11" text-anchor="end" fill="#898781" style="font-variant-numeric:tabular-nums">0</text>
<line x1="48" x2="616" y1="200.5" y2="200.5" stroke="#2c2c2a" stroke-width="1"/>
<text x="40" y="204.5" font-size="11" text-anchor="end" fill="#898781" style="font-variant-numeric:tabular-nums">25</text>
<line x1="48" x2="616" y1="155.0" y2="155.0" stroke="#2c2c2a" stroke-width="1"/>
<text x="40" y="159.0" font-size="11" text-anchor="end" fill="#898781" style="font-variant-numeric:tabular-nums">50</text>
<line x1="48" x2="616" y1="109.5" y2="109.5" stroke="#2c2c2a" stroke-width="1"/>
<text x="40" y="113.5" font-size="11" text-anchor="end" fill="#898781" style="font-variant-numeric:tabular-nums">75</text>
<line x1="48" x2="616" y1="64.0" y2="64.0" stroke="#2c2c2a" stroke-width="1"/>
<text x="40" y="68.0" font-size="11" text-anchor="end" fill="#898781" style="font-variant-numeric:tabular-nums">100</text>
<rect x="107.0" y="218.7" width="24" height="27.3" fill="#3987e5"/>
<rect x="107.0" y="207.8" width="24" height="8.9" fill="#d95926"/>
<rect x="107.0" y="198.7" width="24" height="7.1" fill="#199e70"/>
<path d="M107.0,196.7 V194.0 Q107.0,191.4 109.6,191.4 H128.4 Q131.0,191.4 131.0,194.0 V196.7 Z" fill="#c98500"/>
<text x="119.0" y="183.4" font-size="12.5" font-weight="600" text-anchor="middle" fill="#ffffff">30</text>
<text x="119.0" y="266" font-size="12" text-anchor="middle" fill="#c3c2b7">2023</text>
<rect x="249.0" y="224.2" width="24" height="21.8" fill="#3987e5"/>
<rect x="249.0" y="204.1" width="24" height="18.0" fill="#d95926"/>
<rect x="249.0" y="189.6" width="24" height="12.6" fill="#199e70"/>
<path d="M249.0,187.6 V185.8 Q249.0,184.1 250.7,184.1 H271.3 Q273.0,184.1 273.0,185.8 V187.6 Z" fill="#c98500"/>
<text x="261.0" y="176.1" font-size="12.5" font-weight="600" text-anchor="middle" fill="#ffffff">34</text>
<text x="261.0" y="266" font-size="12" text-anchor="middle" fill="#c3c2b7">2024</text>
<rect x="391.0" y="207.8" width="24" height="38.2" fill="#3987e5"/>
<rect x="391.0" y="180.5" width="24" height="25.3" fill="#d95926"/>
<rect x="391.0" y="165.9" width="24" height="12.6" fill="#199e70"/>
<path d="M391.0,163.9 V159.0 Q391.0,155.0 395.0,155.0 H411.0 Q415.0,155.0 415.0,159.0 V163.9 Z" fill="#c98500"/>
<text x="403.0" y="147.0" font-size="12.5" font-weight="600" text-anchor="middle" fill="#ffffff">50</text>
<text x="403.0" y="266" font-size="12" text-anchor="middle" fill="#c3c2b7">2025</text>
<rect x="533.0" y="195.0" width="24" height="51.0" fill="#3987e5"/>
<rect x="533.0" y="142.3" width="24" height="50.8" fill="#d95926"/>
<rect x="533.0" y="124.1" width="24" height="16.2" fill="#199e70"/>
<path d="M533.0,122.1 V102.6 Q533.0,98.6 537.0,98.6 H553.0 Q557.0,98.6 557.0,102.6 V122.1 Z" fill="#c98500"/>
<text x="545.0" y="90.6" font-size="12.5" font-weight="600" text-anchor="middle" fill="#ffffff">81</text>
<text x="545.0" y="266" font-size="12" text-anchor="middle" fill="#c3c2b7">2026*</text>
</svg>